<svg height='100px' width='100px'  fill="#000000" xmlns="http://www.w3.org/2000/svg" xmlns:xlink="http://www.w3.org/1999/xlink" version="1.1" x="0px" y="0px" viewBox="0 0 32 32" enable-background="new 0 0 32 32" xml:space="preserve"><g><path d="M26.665,25.287l-7.453-6.957c1.223-1.416,1.967-3.255,1.967-5.268c0-4.456-3.625-8.08-8.08-8.08   c-4.456,0-8.081,3.625-8.081,8.08s3.625,8.08,8.081,8.08c1.721,0,3.313-0.545,4.626-1.465l7.575,7.071   c0.193,0.18,0.438,0.269,0.683,0.269c0.268,0,0.534-0.107,0.731-0.318C27.09,26.296,27.068,25.664,26.665,25.287z M7.018,13.063   c0-3.353,2.728-6.08,6.081-6.08c3.353,0,6.08,2.728,6.08,6.08s-2.728,6.08-6.08,6.08C9.745,19.143,7.018,16.415,7.018,13.063z"></path></g></svg>